<svg xmlns="http://www.w3.org/2000/svg" viewBox="0 0 256 256" fill="none">
  <rect width="256" height="256" rx="60" fill="#fff"/>
  <path d="M106.519 37.6134c-10.3352-.0053-20.6522-.0105-31.0231.0053-6.271 0-8.6231 7.8728-3.9592 12.5361l70.5983 70.5982c2.203 2.015 3.577 4.205 3.627 7.093-.05 2.887-1.424 5.077-3.627 7.092l-70.5983 70.598c-4.6639 4.664-2.3118 12.536 3.9592 12.536 10.3709.016 20.6879.011 31.0231.006 5.174-.003 10.353-.006 15.545-.006 6.793 0 10.833-3.628 14.462-7.257l63.67-63.67c5.082-5.082 9.628-11.829 9.567-19.299.061-7.471-4.485-14.218-9.567-19.299l-63.67-63.6705c-3.629-3.6288-7.669-7.2578-14.462-7.2578-5.192 0-10.371-.0026-15.545-.0053Z" fill="#001F29"/>
</svg>
